<?xml version="1.0" standalone="no"?>
<!DOCTYPE svg PUBLIC "-//W3C//DTD SVG 20010904//EN"
 "http://www.w3.org/TR/2001/REC-SVG-20010904/DTD/svg10.dtd">
<svg version="1.0" xmlns="http://www.w3.org/2000/svg"
 width="80.000000pt" height="80.000000pt" viewBox="0 0 80.000000 80.000000"
 preserveAspectRatio="xMidYMid meet">

<g transform="translate(0.000000,80.000000) scale(0.100000,-0.100000)"
fill="#000000" stroke="none">
<path d="M225 700 c-4 -11 -25 -42 -47 -68 -95 -109 -117 -222 -78 -404 21
-101 34 -138 43 -128 3 3 -6 52 -20 110 -42 180 -20 312 66 405 37 39 61 76
61 92 0 20 -18 15 -25 -7z"/>
<path d="M550 709 c0 -18 21 -52 58 -93 50 -57 84 -138 89 -215 4 -59 -8 -139
-42 -274 -4 -16 -3 -27 3 -27 5 0 19 39 32 87 53 214 33 327 -82 460 -21 24
-38 51 -38 59 0 8 -4 14 -10 14 -5 0 -10 -5 -10 -11z"/>
<path d="M250 590 c0 -5 5 -10 10 -10 6 0 10 5 10 10 0 6 -4 10 -10 10 -5 0
-10 -4 -10 -10z"/>
<path d="M520 590 c0 -5 5 -10 10 -10 6 0 10 5 10 10 0 6 -4 10 -10 10 -5 0
-10 -4 -10 -10z"/>
<path d="M290 580 c0 -5 5 -10 10 -10 6 0 10 5 10 10 0 6 -4 10 -10 10 -5 0
-10 -4 -10 -10z"/>
<path d="M485 580 c3 -5 8 -10 11 -10 2 0 4 5 4 10 0 6 -5 10 -11 10 -5 0 -7
-4 -4 -10z"/>
<path d="M325 560 c-3 -5 -1 -10 4 -10 6 0 11 5 11 10 0 6 -2 10 -4 10 -3 0
-8 -4 -11 -10z"/>
<path d="M450 560 c0 -5 5 -10 10 -10 6 0 10 5 10 10 0 6 -4 10 -10 10 -5 0
-10 -4 -10 -10z"/>
<path d="M360 476 c0 -2 7 -20 15 -39 31 -75 11 -142 -52 -173 -26 -12 -33
-19 -21 -22 9 -2 26 2 37 7 11 6 22 11 24 11 11 0 27 -66 27 -111 0 -27 5 -49
10 -49 6 0 10 13 10 30 0 34 19 130 26 130 3 0 14 -5 25 -11 11 -5 28 -9 37
-7 12 3 5 10 -21 22 -63 31 -83 98 -52 173 18 42 18 43 6 43 -5 0 -13 -9 -16
-20 -3 -11 -10 -20 -15 -20 -5 0 -12 9 -15 20 -5 16 -25 29 -25 16z m54 -194
c-1 -7 -2 -22 -3 -34 -2 -22 -2 -22 -17 5 -15 28 -11 51 9 44 7 -2 12 -9 11
-15z"/>
<path d="M250 240 c0 -5 5 -10 10 -10 6 0 10 5 10 10 0 6 -4 10 -10 10 -5 0
-10 -4 -10 -10z"/>
<path d="M530 240 c0 -5 5 -10 10 -10 6 0 10 5 10 10 0 6 -4 10 -10 10 -5 0
-10 -4 -10 -10z"/>
</g>
</svg>
