<?xml version="1.0" standalone="no"?>
<!DOCTYPE svg PUBLIC "-//W3C//DTD SVG 20010904//EN"
 "http://www.w3.org/TR/2001/REC-SVG-20010904/DTD/svg10.dtd">
<svg version="1.0" xmlns="http://www.w3.org/2000/svg"
 width="48.000000pt" height="48.000000pt" viewBox="0 0 48.000000 48.000000"
 preserveAspectRatio="xMidYMid meet">

<g transform="translate(0.000000,48.000000) scale(0.100000,-0.100000)"
fill="#000000" stroke="none">
<path d="M185 422 c-3 -11 -22 -24 -44 -31 -21 -6 -44 -18 -51 -26 -6 -8 -14
-59 -17 -115 -5 -92 -4 -106 18 -151 l23 -51 12 34 c7 22 8 40 1 55 -10 23 -2
89 13 98 5 3 14 -14 21 -37 10 -37 8 -51 -10 -100 l-20 -58 109 0 c61 0 110 3
110 6 0 3 -10 28 -21 55 -19 44 -20 54 -9 94 7 25 16 42 21 39 14 -8 22 -74
12 -97 -7 -15 -6 -33 1 -55 l12 -34 23 51 c22 45 23 59 18 151 -3 56 -11 107
-17 115 -7 8 -30 20 -53 27 -23 7 -42 20 -45 30 -7 27 -98 26 -107 0z m65
-182 c0 -33 -4 -60 -10 -60 -6 0 -10 27 -10 60 0 33 4 60 10 60 6 0 10 -27 10
-60z"/>
</g>
</svg>
