<?xml version="1.0" standalone="no"?>
<!DOCTYPE svg PUBLIC "-//W3C//DTD SVG 20010904//EN"
 "http://www.w3.org/TR/2001/REC-SVG-20010904/DTD/svg10.dtd">
<svg version="1.0" xmlns="http://www.w3.org/2000/svg"
 width="32.000000pt" height="32.000000pt" viewBox="0 0 32.000000 32.000000"
 preserveAspectRatio="xMidYMid meet">

<g transform="translate(0.000000,32.000000) scale(0.100000,-0.100000)"
fill="#000000" stroke="none">
<path d="M93 265 c-32 -13 -37 -22 -47 -86 -7 -38 12 -68 34 -54 6 4 10 -7 10
-27 0 -45 15 -58 70 -58 55 0 70 13 70 58 0 20 4 31 10 27 22 -14 41 16 34 54
-10 64 -15 73 -50 87 -42 17 -90 17 -131 -1z m121 -19 c28 -12 34 -20 38 -52
3 -22 4 -41 2 -43 -8 -9 -32 22 -27 35 6 15 -12 20 -21 5 -7 -11 -85 -11 -92
0 -9 15 -27 10 -21 -5 5 -13 -19 -44 -27 -35 -2 2 -1 21 2 42 4 32 10 41 36
53 40 17 69 17 110 0z m-18 -86 c12 0 14 -11 12 -47 l-3 -48 -45 0 -45 0 -3
47 c-3 42 -1 47 20 51 13 2 29 3 36 1 8 -2 20 -4 28 -4z"/>
</g>
</svg>
